<?xml version="1.0" encoding="UTF-8"?>
<svg xmlns="http://www.w3.org/2000/svg" width="16" height="16" viewBox="0 0 16 16">
  <path d="M15 0a1 1 0 0 1 1 1c0 2.88-.54 4.95-1.8 6.2l-3.66 3.68c.1 1.34-.05 2.04-.83 2.83l-2 2a1 1 0 0 1-1.7-.72c0-1.49-.44-3-1.22-3.78C4 10.4 2.53 9.99 1.01 10A1 1 0 0 1 .3 8.28l2-2c.79-.78 1.49-.93 2.84-.83L8.79 1.8C10.04.54 12.12 0 15 0zM0 16c.45-1.77.95-2.93 1.5-3.5.84-.85 1.84-1.16 2.5-.5.66.66.35 1.67-.5 2.5-.56.56-1.73 1.06-3.5 1.5zM11.5 6a1.5 1.5 0 1 0 0-3 1.5 1.5 0 0 0 0 3z" fill-rule="nonzero" fill="#514cc2"/>
</svg>
